<?xml version="1.0" encoding="UTF-8" standalone="no"?>
<!DOCTYPE svg PUBLIC "-//W3C//DTD SVG 1.1//EN" "http://www.w3.org/Graphics/SVG/1.1/DTD/svg11.dtd">
<svg width="100%" height="100%" viewBox="0 0 108 108" version="1.1" xmlns="http://www.w3.org/2000/svg" xmlns:xlink="http://www.w3.org/1999/xlink" xml:space="preserve" xmlns:serif="http://www.serif.com/" style="fill-rule:evenodd;clip-rule:evenodd;stroke-linejoin:round;stroke-miterlimit:2;">
    <g transform="matrix(0.54,0,0,0.54,0,0)">
        <rect x="-17.116" y="-11.566" width="234.67" height="238.248" style="fill:rgb(255,192,203);"/>
    </g>
    <g id="Icon" transform="matrix(0.157333,0,0,0.157333,31.7772,30.3342)">
        <path id="Fill-3" d="M272,191.111L272,300.419L156.119,300.419C137.931,297.646 124,282.021 124,263.165C124,242.347 140.975,225.471 161.917,225.471L196.042,225.471L196.042,225.035L196.167,225.035L196.167,191.111C196.167,170.293 213.142,153.419 234.084,153.419C253.982,153.419 270.306,168.662 271.875,188.047C271.958,189.057 272,190.079 272,191.111" style="fill:rgb(255,255,254);"/>
        <path id="Fill-4" d="M268.517,115.941C267.608,116.603 266.686,117.223 265.74,117.789C263.541,119.123 261.249,120.208 258.903,121.047C243.54,126.538 225.774,121.603 215.642,107.782C201.928,89.072 175.168,76.003 150.573,76.003C122.089,76.003 97.264,91.97 84.6,115.417C82.441,119.411 80.637,123.621 79.229,128.008C76.914,135.204 75.665,142.876 75.665,150.831C75.665,188.06 103.022,219.022 138.705,224.718C135.387,226.653 132.296,229.034 129.509,231.822C120.935,240.386 116.214,251.777 116.214,263.89C116.214,276.005 120.935,287.392 129.509,295.959C131.139,297.588 132.868,299.073 134.687,300.419C122.134,299.107 109.869,296.231 98.027,291.817C95.989,291.062 93.964,290.256 91.952,289.406C91.63,289.271 91.308,289.135 90.991,288.994C73.445,281.439 57.675,270.745 44.105,257.189C30.289,243.387 19.434,227.306 11.849,209.39C3.987,190.823 0,171.121 0,150.831C0,130.544 3.987,110.839 11.849,92.273C16.555,81.154 22.526,70.739 29.676,61.139C34.045,55.271 38.861,49.707 44.101,44.473C45.433,43.143 46.788,41.839 48.164,40.561C61.043,28.612 75.748,19.103 91.952,12.256C110.542,4.402 130.265,0.419 150.573,0.419C174.605,0.419 199.162,6.337 221.601,17.531C243.945,28.68 262.997,44.447 276.688,63.123C289.033,79.964 285.375,103.61 268.517,115.941" style="fill:rgb(255,255,254);"/>
    </g>
</svg>
